<svg width="324" height="348" viewBox="0 0 324 348" fill="none" xmlns="http://www.w3.org/2000/svg">
<path d="M83 191.535L83 217.74C83 219.712 84.0486 221.535 85.7509 222.521L161.249 266.26C162.951 267.247 165.049 267.247 166.751 266.26L242.249 222.521C243.951 221.535 245 219.712 245 217.74V182.51L164 229.605L116.011 201.802L116.011 172.41L83 191.535Z" fill="#00B0D1"/>
<path d="M164 118.395L211.989 146.198V176.032L245 156.908V130.26C245 128.288 243.951 126.465 242.249 125.479L166.751 81.7397C165.049 80.7534 162.951 80.7534 161.249 81.7397L85.7509 125.479C84.0486 126.465 83 128.288 83 130.26L83 166.101L164 118.395Z" fill="#00B0D1"/>
</svg>
